<svg xmlns="http://www.w3.org/2000/svg" viewBox="0 0 372 120" width="372" height="120">
<g transform="translate(6 16) scale(0.34375)"><g stroke="#16294e" stroke-width="7" stroke-linejoin="round" stroke-linecap="round">
    <path d="M 14 106 L 110 85 L 110 127 Z" fill="#cdd3d9"></path>
    <rect x="103" y="91" width="23" height="30" rx="4" fill="#9aa3ad"></rect>
  </g>
  <g stroke="#16294e" stroke-width="5" stroke-linecap="round">
    <line x1="37" y1="111" x2="48" y2="99"></line>
    <line x1="57" y1="115" x2="68" y2="94"></line>
    <line x1="77" y1="120" x2="90" y2="90"></line>
  </g>
  
  <circle cx="116" cy="106" r="12" fill="#29b6f6" stroke="#16294e" stroke-width="7"></circle>
  <circle cx="116" cy="106" r="3.4" fill="#16294e"></circle>
  
  <g fill="#3b3baf" stroke="#16294e" stroke-width="7" stroke-linejoin="round">
    <rect x="124" y="38" width="19" height="34" rx="9"></rect>
    <rect x="147" y="38" width="19" height="34" rx="9"></rect>
    <rect x="170" y="38" width="19" height="34" rx="9"></rect>
    <rect x="193" y="38" width="19" height="34" rx="9"></rect>
  </g>
  
  <rect x="116" y="60" width="98" height="92" rx="20" fill="#29b6f6" stroke="#16294e" stroke-width="7"></rect>
  
  <rect x="208" y="96" width="18" height="22" rx="5" fill="#29b6f6" stroke="#16294e" stroke-width="7"></rect>
  
  <g fill="#16294e">
    <circle cx="131" cy="74" r="2.5"></circle><circle cx="144" cy="74" r="2.5"></circle><circle cx="157" cy="74" r="2.5"></circle>
    <circle cx="170" cy="74" r="2.5"></circle><circle cx="183" cy="74" r="2.5"></circle><circle cx="196" cy="74" r="2.5"></circle>
    <circle cx="198" cy="88" r="2.5"></circle><circle cx="198" cy="101" r="2.5"></circle><circle cx="198" cy="114" r="2.5"></circle>
  </g>
  
  <g stroke="#16294e" stroke-width="5" stroke-linecap="round">
    <line x1="135" y1="84" x2="135" y2="90"></line><line x1="147" y1="84" x2="147" y2="90"></line><line x1="159" y1="84" x2="159" y2="90"></line>
    <line x1="135" y1="130" x2="135" y2="124"></line><line x1="147" y1="130" x2="147" y2="124"></line><line x1="159" y1="130" x2="159" y2="124"></line>
    <line x1="117" y1="96" x2="123" y2="96"></line><line x1="117" y1="107" x2="123" y2="107"></line><line x1="117" y1="118" x2="123" y2="118"></line>
    <line x1="177" y1="96" x2="171" y2="96"></line><line x1="177" y1="107" x2="171" y2="107"></line><line x1="177" y1="118" x2="171" y2="118"></line>
  </g>
  <rect x="123" y="88" width="48" height="38" rx="5" fill="#54b85a" stroke="#16294e" stroke-width="6"></rect>
  <rect x="135" y="97" width="24" height="20" rx="3" fill="#b6e0ad"></rect>
  
  <rect x="150" y="150" width="30" height="16" rx="4" fill="#29b6f6" stroke="#16294e" stroke-width="7"></rect>
  <rect x="200" y="146" width="18" height="44" rx="9" fill="#29b6f6" stroke="#16294e" stroke-width="7" transform="rotate(26 209 168)"></rect>
  <rect x="142" y="162" width="46" height="26" rx="12" fill="#29b6f6" stroke="#16294e" stroke-width="7"></rect>
  <path d="M152 188 A 13 13 0 0 1 178 188" fill="none" stroke="#16294e" stroke-width="6" stroke-linecap="round"></path>
  <rect x="150" y="188" width="30" height="34" rx="5" fill="#29b6f6" stroke="#16294e" stroke-width="7"></rect>
  <g stroke="#16294e" stroke-width="5" stroke-linecap="round">
    <line x1="159" y1="194" x2="159" y2="216"></line><line x1="166" y1="194" x2="166" y2="216"></line><line x1="173" y1="194" x2="173" y2="216"></line>
  </g>
  <rect x="142" y="220" width="46" height="15" rx="5" fill="#29b6f6" stroke="#16294e" stroke-width="7"></rect></g>
  <text x="108" y="60" dominant-baseline="central" font-family="ui-monospace, SFMono-Regular, Menlo, monospace" font-size="58" font-weight="600" letter-spacing="-1" fill="#16294e">ha-ops</text>
</svg>